<mxfile host="app.diagrams.net" modified="2020-12-10T12:09:58.007Z" agent="5.0 (Windows NT 10.0; Win64; x64) AppleWebKit/537.36 (KHTML, like Gecko) Chrome/86.0.4240.198 Safari/537.36" etag="1nCoKhGm6C-Jkm7hfuju" version="13.9.2" type="github">
  <diagram id="0l8NT5ws2hv5WiYkSwEe" name="Page-1">
    <mxGraphModel dx="1752" dy="1215" grid="1" gridSize="10" guides="1" tooltips="1" connect="1" arrows="1" fold="1" page="1" pageScale="1" pageWidth="1920" pageHeight="1200" math="0" shadow="0">
      <root>
        <mxCell id="0" />
        <mxCell id="1" parent="0" />
        <mxCell id="gWWJXewm_Msr0g7UDjvP-11" value="Front" style="rounded=0;whiteSpace=wrap;html=1;verticalAlign=top;fontStyle=1;fontSize=17;" vertex="1" parent="1">
          <mxGeometry x="40" y="185" width="250" height="590" as="geometry" />
        </mxCell>
        <mxCell id="gWWJXewm_Msr0g7UDjvP-1" value="shared modules" style="rounded=0;whiteSpace=wrap;html=1;" vertex="1" parent="1">
          <mxGeometry x="65" y="220" width="200" height="40" as="geometry" />
        </mxCell>
        <mxCell id="gWWJXewm_Msr0g7UDjvP-2" value="Apps" style="rounded=0;whiteSpace=wrap;html=1;verticalAlign=top;fontStyle=1" vertex="1" parent="1">
          <mxGeometry x="65" y="295" width="200" height="320" as="geometry" />
        </mxCell>
        <mxCell id="gWWJXewm_Msr0g7UDjvP-3" value="edu" style="rounded=0;whiteSpace=wrap;html=1;" vertex="1" parent="1">
          <mxGeometry x="105" y="325" width="120" height="40" as="geometry" />
        </mxCell>
        <mxCell id="gWWJXewm_Msr0g7UDjvP-4" value="sberbox" style="rounded=0;whiteSpace=wrap;html=1;" vertex="1" parent="1">
          <mxGeometry x="105" y="385" width="120" height="40" as="geometry" />
        </mxCell>
        <mxCell id="gWWJXewm_Msr0g7UDjvP-5" value="school21" style="rounded=0;whiteSpace=wrap;html=1;" vertex="1" parent="1">
          <mxGeometry x="105" y="445" width="120" height="40" as="geometry" />
        </mxCell>
        <mxCell id="gWWJXewm_Msr0g7UDjvP-6" value="university" style="rounded=0;whiteSpace=wrap;html=1;" vertex="1" parent="1">
          <mxGeometry x="105" y="505" width="120" height="40" as="geometry" />
        </mxCell>
        <mxCell id="gWWJXewm_Msr0g7UDjvP-7" value="bootcamp" style="rounded=0;whiteSpace=wrap;html=1;" vertex="1" parent="1">
          <mxGeometry x="105" y="565" width="120" height="40" as="geometry" />
        </mxCell>
        <mxCell id="gWWJXewm_Msr0g7UDjvP-8" value="tools" style="rounded=0;whiteSpace=wrap;html=1;" vertex="1" parent="1">
          <mxGeometry x="65" y="655" width="200" height="40" as="geometry" />
        </mxCell>
        <mxCell id="gWWJXewm_Msr0g7UDjvP-10" value="some configs (npm, lerna, yarn)" style="text;html=1;strokeColor=none;fillColor=none;align=center;verticalAlign=middle;whiteSpace=wrap;rounded=0;" vertex="1" parent="1">
          <mxGeometry x="65" y="735" width="200" height="20" as="geometry" />
        </mxCell>
        <mxCell id="gWWJXewm_Msr0g7UDjvP-12" value="commit to develop&lt;br&gt;" style="rounded=1;whiteSpace=wrap;html=1;fontSize=17;fillColor=#d5e8d4;strokeColor=#82b366;" vertex="1" parent="1">
          <mxGeometry x="600" y="670" width="160" height="30" as="geometry" />
        </mxCell>
        <mxCell id="gWWJXewm_Msr0g7UDjvP-17" value="" style="edgeStyle=segmentEdgeStyle;endArrow=classic;html=1;fontSize=17;entryX=1;entryY=0.75;entryDx=0;entryDy=0;fillColor=#d5e8d4;strokeColor=#82b366;exitX=0;exitY=0.5;exitDx=0;exitDy=0;" edge="1" parent="1" source="gWWJXewm_Msr0g7UDjvP-12" target="gWWJXewm_Msr0g7UDjvP-8">
          <mxGeometry width="50" height="50" relative="1" as="geometry">
            <mxPoint x="530" y="685" as="sourcePoint" />
            <mxPoint x="585" y="750" as="targetPoint" />
            <Array as="points">
              <mxPoint x="560" y="685" />
            </Array>
          </mxGeometry>
        </mxCell>
        <mxCell id="gWWJXewm_Msr0g7UDjvP-18" value="use" style="edgeLabel;html=1;align=center;verticalAlign=middle;resizable=0;points=[];fontSize=17;" vertex="1" connectable="0" parent="gWWJXewm_Msr0g7UDjvP-17">
          <mxGeometry x="-0.0791" y="4" relative="1" as="geometry">
            <mxPoint x="-5" y="-4.0000000000000036" as="offset" />
          </mxGeometry>
        </mxCell>
        <mxCell id="gWWJXewm_Msr0g7UDjvP-24" value="" style="edgeStyle=segmentEdgeStyle;endArrow=classic;html=1;fontSize=17;exitX=1;exitY=0.25;exitDx=0;exitDy=0;fillColor=#d5e8d4;strokeColor=#82b366;entryX=1;entryY=0.75;entryDx=0;entryDy=0;" edge="1" parent="1" source="gWWJXewm_Msr0g7UDjvP-8" target="gWWJXewm_Msr0g7UDjvP-1">
          <mxGeometry width="50" height="50" relative="1" as="geometry">
            <mxPoint x="760" y="555" as="sourcePoint" />
            <mxPoint x="330" y="235" as="targetPoint" />
            <Array as="points">
              <mxPoint x="320" y="665" />
              <mxPoint x="320" y="250" />
            </Array>
          </mxGeometry>
        </mxCell>
        <mxCell id="gWWJXewm_Msr0g7UDjvP-25" value="detect CHANGED and trigger build" style="edgeLabel;html=1;align=center;verticalAlign=middle;resizable=0;points=[];fontSize=17;rotation=90;" vertex="1" connectable="0" parent="gWWJXewm_Msr0g7UDjvP-24">
          <mxGeometry x="-0.3352" y="-1" relative="1" as="geometry">
            <mxPoint y="-120" as="offset" />
          </mxGeometry>
        </mxCell>
        <mxCell id="gWWJXewm_Msr0g7UDjvP-26" value="" style="edgeStyle=segmentEdgeStyle;endArrow=classic;html=1;fontSize=17;fillColor=#d5e8d4;strokeColor=#82b366;entryX=0;entryY=0;entryDx=0;entryDy=30;entryPerimeter=0;" edge="1" parent="1" source="gWWJXewm_Msr0g7UDjvP-1" target="gWWJXewm_Msr0g7UDjvP-28">
          <mxGeometry width="50" height="50" relative="1" as="geometry">
            <mxPoint x="200" y="50" as="sourcePoint" />
            <mxPoint x="390" y="10" as="targetPoint" />
            <Array as="points">
              <mxPoint x="220" y="100" />
            </Array>
          </mxGeometry>
        </mxCell>
        <mxCell id="gWWJXewm_Msr0g7UDjvP-29" value="build" style="edgeLabel;html=1;align=center;verticalAlign=middle;resizable=0;points=[];fontSize=17;rotation=0;" vertex="1" connectable="0" parent="gWWJXewm_Msr0g7UDjvP-26">
          <mxGeometry x="0.6522" y="-48" relative="1" as="geometry">
            <mxPoint x="-36" y="-48" as="offset" />
          </mxGeometry>
        </mxCell>
        <mxCell id="gWWJXewm_Msr0g7UDjvP-28" value="NPM" style="shape=cube;whiteSpace=wrap;html=1;boundedLbl=1;backgroundOutline=1;darkOpacity=0.05;darkOpacity2=0.1;" vertex="1" parent="1">
          <mxGeometry x="400" y="70" width="140" height="80" as="geometry" />
        </mxCell>
        <mxCell id="gWWJXewm_Msr0g7UDjvP-30" value="trigger deploy" style="rounded=1;whiteSpace=wrap;html=1;fontSize=17;fillColor=#dae8fc;strokeColor=#6c8ebf;" vertex="1" parent="1">
          <mxGeometry x="600" y="320" width="160" height="30" as="geometry" />
        </mxCell>
        <mxCell id="gWWJXewm_Msr0g7UDjvP-31" value="" style="edgeStyle=segmentEdgeStyle;endArrow=classic;html=1;fontSize=17;fillColor=#dae8fc;strokeColor=#6c8ebf;entryX=1;entryY=0.25;entryDx=0;entryDy=0;exitX=0;exitY=0.5;exitDx=0;exitDy=0;" edge="1" parent="1" source="gWWJXewm_Msr0g7UDjvP-30" target="gWWJXewm_Msr0g7UDjvP-3">
          <mxGeometry width="50" height="50" relative="1" as="geometry">
            <mxPoint x="510" y="410" as="sourcePoint" />
            <mxPoint x="370" y="340" as="targetPoint" />
            <Array as="points">
              <mxPoint x="530" y="335" />
              <mxPoint x="530" y="335" />
            </Array>
          </mxGeometry>
        </mxCell>
        <mxCell id="gWWJXewm_Msr0g7UDjvP-36" style="edgeStyle=orthogonalEdgeStyle;rounded=1;orthogonalLoop=1;jettySize=auto;html=1;exitX=0.375;exitY=0;exitDx=0;exitDy=0;entryX=0;entryY=1;entryDx=0;entryDy=0;fontSize=17;fillColor=#dae8fc;strokeColor=#6c8ebf;" edge="1" parent="1" source="gWWJXewm_Msr0g7UDjvP-32" target="gWWJXewm_Msr0g7UDjvP-46">
          <mxGeometry relative="1" as="geometry" />
        </mxCell>
        <mxCell id="gWWJXewm_Msr0g7UDjvP-38" value="request" style="edgeLabel;html=1;align=center;verticalAlign=middle;resizable=0;points=[];fontSize=17;" vertex="1" connectable="0" parent="gWWJXewm_Msr0g7UDjvP-36">
          <mxGeometry x="0.1536" y="1" relative="1" as="geometry">
            <mxPoint x="13.4" y="3.5999999999999996" as="offset" />
          </mxGeometry>
        </mxCell>
        <mxCell id="gWWJXewm_Msr0g7UDjvP-41" style="edgeStyle=orthogonalEdgeStyle;rounded=1;orthogonalLoop=1;jettySize=auto;html=1;exitX=1;exitY=0.5;exitDx=0;exitDy=0;entryX=0;entryY=0;entryDx=0;entryDy=30;entryPerimeter=0;fontSize=17;fillColor=#dae8fc;strokeColor=#6c8ebf;" edge="1" parent="1" source="gWWJXewm_Msr0g7UDjvP-32" target="gWWJXewm_Msr0g7UDjvP-40">
          <mxGeometry relative="1" as="geometry" />
        </mxCell>
        <mxCell id="gWWJXewm_Msr0g7UDjvP-32" value="build" style="shape=hexagon;perimeter=hexagonPerimeter2;whiteSpace=wrap;html=1;fixedSize=1;fontSize=17;strokeColor=#6C8EBF;" vertex="1" parent="1">
          <mxGeometry x="420" y="475" width="120" height="50" as="geometry" />
        </mxCell>
        <mxCell id="gWWJXewm_Msr0g7UDjvP-33" value="" style="edgeStyle=segmentEdgeStyle;endArrow=classic;html=1;fontSize=17;fillColor=#dae8fc;strokeColor=#6c8ebf;entryX=0;entryY=0.5;entryDx=0;entryDy=0;exitX=1;exitY=0.75;exitDx=0;exitDy=0;" edge="1" parent="1" source="gWWJXewm_Msr0g7UDjvP-3" target="gWWJXewm_Msr0g7UDjvP-32">
          <mxGeometry width="50" height="50" relative="1" as="geometry">
            <mxPoint x="760" y="520" as="sourcePoint" />
            <mxPoint x="340" y="328" as="targetPoint" />
            <Array as="points">
              <mxPoint x="350" y="355" />
              <mxPoint x="350" y="500" />
              <mxPoint x="390" y="500" />
            </Array>
          </mxGeometry>
        </mxCell>
        <mxCell id="gWWJXewm_Msr0g7UDjvP-40" value="server" style="shape=cube;whiteSpace=wrap;html=1;boundedLbl=1;backgroundOutline=1;darkOpacity=0.05;darkOpacity2=0.1;strokeColor=#6C8EBF;fontSize=17;" vertex="1" parent="1">
          <mxGeometry x="620" y="470" width="120" height="65" as="geometry" />
        </mxCell>
        <mxCell id="gWWJXewm_Msr0g7UDjvP-44" style="edgeStyle=orthogonalEdgeStyle;rounded=1;orthogonalLoop=1;jettySize=auto;html=1;exitX=1;exitY=1;exitDx=0;exitDy=0;entryX=0.625;entryY=0;entryDx=0;entryDy=0;fontSize=17;fillColor=#dae8fc;strokeColor=#6c8ebf;" edge="1" parent="1" source="gWWJXewm_Msr0g7UDjvP-46" target="gWWJXewm_Msr0g7UDjvP-32">
          <mxGeometry relative="1" as="geometry">
            <mxPoint x="550" y="120" as="sourcePoint" />
            <mxPoint x="954.5521375021799" y="341.1942999941857" as="targetPoint" />
          </mxGeometry>
        </mxCell>
        <mxCell id="gWWJXewm_Msr0g7UDjvP-45" value="module" style="edgeLabel;html=1;align=center;verticalAlign=middle;resizable=0;points=[];fontSize=17;" vertex="1" connectable="0" parent="gWWJXewm_Msr0g7UDjvP-44">
          <mxGeometry x="0.1446" y="1" relative="1" as="geometry">
            <mxPoint x="23.380000000000003" y="-8.5" as="offset" />
          </mxGeometry>
        </mxCell>
        <mxCell id="gWWJXewm_Msr0g7UDjvP-46" value="yarn + lerna" style="ellipse;whiteSpace=wrap;html=1;dashed=1;strokeColor=#6C8EBF;fontSize=17;" vertex="1" parent="1">
          <mxGeometry x="420" y="190" width="120" height="80" as="geometry" />
        </mxCell>
        <mxCell id="gWWJXewm_Msr0g7UDjvP-49" value="" style="endArrow=classic;startArrow=classic;html=1;fontSize=17;fillColor=#dae8fc;strokeColor=#6c8ebf;entryX=0;entryY=0;entryDx=80;entryDy=80;entryPerimeter=0;" edge="1" parent="1" source="gWWJXewm_Msr0g7UDjvP-46" target="gWWJXewm_Msr0g7UDjvP-28">
          <mxGeometry width="50" height="50" relative="1" as="geometry">
            <mxPoint x="780" y="520" as="sourcePoint" />
            <mxPoint x="477" y="180" as="targetPoint" />
          </mxGeometry>
        </mxCell>
        <mxCell id="gWWJXewm_Msr0g7UDjvP-50" value="" style="endArrow=classic;startArrow=classic;html=1;fontSize=17;jumpStyle=arc;exitX=0;exitY=0.5;exitDx=0;exitDy=0;entryX=1;entryY=0.25;entryDx=0;entryDy=0;fillColor=#dae8fc;strokeColor=#6c8ebf;dashed=1;" edge="1" parent="1" source="gWWJXewm_Msr0g7UDjvP-46" target="gWWJXewm_Msr0g7UDjvP-1">
          <mxGeometry width="50" height="50" relative="1" as="geometry">
            <mxPoint x="700" y="200" as="sourcePoint" />
            <mxPoint x="1040" y="210" as="targetPoint" />
            <Array as="points" />
          </mxGeometry>
        </mxCell>
        <mxCell id="gWWJXewm_Msr0g7UDjvP-51" value="local or dev" style="edgeLabel;html=1;align=center;verticalAlign=middle;resizable=0;points=[];fontSize=17;" vertex="1" connectable="0" parent="gWWJXewm_Msr0g7UDjvP-50">
          <mxGeometry x="0.3108" y="-1" relative="1" as="geometry">
            <mxPoint x="28" y="1" as="offset" />
          </mxGeometry>
        </mxCell>
        <mxCell id="gWWJXewm_Msr0g7UDjvP-52" value="conventions, rules and knowledge" style="ellipse;shape=cloud;whiteSpace=wrap;html=1;dashed=1;strokeColor=#6c8ebf;fontSize=17;fillColor=#dae8fc;gradientColor=#7ea6e0;spacingLeft=10;spacingRight=10;" vertex="1" parent="1">
          <mxGeometry x="30" y="20" width="190" height="140" as="geometry" />
        </mxCell>
      </root>
    </mxGraphModel>
  </diagram>
</mxfile>
